<?xml version="1.0" standalone="no"?><!DOCTYPE svg PUBLIC "-//W3C//DTD SVG 1.1//EN" "http://www.w3.org/Graphics/SVG/1.1/DTD/svg11.dtd"><svg t="1743474502558" class="icon" viewBox="0 0 1024 1024" version="1.1" xmlns="http://www.w3.org/2000/svg" p-id="1189" xmlns:xlink="http://www.w3.org/1999/xlink" width="200" height="200"><path d="M513.6 63.3c-247.3 0-447.8 200.5-447.8 447.8C65.7 758.5 266.2 959 513.6 959c247.3 0 447.8-200.5 447.8-447.8 0-247.4-200.5-447.9-447.8-447.9z" fill="#4AAF47" p-id="1190"></path><path d="M256.7 381.7h65V520c0 29-2.1 51.1-6.4 66.3-4.2 15.2-12.8 28-25.6 38.5s-29.3 15.8-49.3 15.8c-21.2 0-37.6-3.5-49.2-10.4-11.6-6.9-20.6-17.1-27-30.5-6.3-13.4-10.1-29.9-11.2-49.6l62-10.2c0.1 11.2 0.9 19.6 2.4 25 1.5 5.4 4.1 9.8 7.7 13.2 2.5 2.2 6 3.3 10.6 3.3 7.3 0 12.6-3.3 16-9.8 3.4-6.5 5.1-17.6 5.1-33.1V381.7zM343.4 585l57.8-6.6c2.4 8.3 5.7 14.3 10 17.9 4.3 3.6 10 5.4 17.2 5.4 7.8 0 13.9-2 18.2-6.1 3.3-3 5-6.8 5-11.3 0-5.1-2.2-9-6.6-11.8-3.1-2-11.5-4.4-25-7.3-20.2-4.3-34.3-8.2-42.1-11.9-7.9-3.6-14.5-9.8-19.9-18.5-5.4-8.7-8.1-18.6-8.1-29.7 0-12.1 2.9-22.6 8.7-31.4 5.8-8.8 13.8-15.4 24-19.7 10.2-4.3 23.9-6.5 41.1-6.5 18.1 0 31.5 1.7 40.1 5 8.6 3.4 15.8 8.6 21.6 15.6 5.8 7.1 10.6 16.6 14.4 28.7l-55.2 6.6c-1.4-5.9-3.8-10.2-7.2-13-4.6-3.7-10.1-5.6-16.6-5.6-6.6 0-11.4 1.4-14.4 4.2-3 2.8-4.5 6.3-4.5 10.3 0 4.5 1.9 7.9 5.7 10.2 3.8 2.3 12.1 4.4 24.9 6.2 19.4 2.7 33.8 6.4 43.2 11.1 9.4 4.7 16.7 11.5 21.7 20.3s7.5 18.5 7.5 29c0 10.6-2.6 21-7.9 31.1-5.3 10.1-13.6 18.1-25 24-11.4 6-26.9 8.9-46.6 8.9-27.8 0-47.5-4.8-59.3-14.4-11.8-9.3-19.4-22.9-22.7-40.7zM518.2 544.6c0-28.1 7.8-51.3 23.5-69.6 15.6-18.2 36.8-27.4 63.4-27.4 30.4 0 53.4 10.7 69 32.1 12.5 17.3 18.7 38.5 18.7 63.7 0 28.4-7.8 51.6-23.3 69.7s-36.9 27.2-64.3 27.2c-24.4 0-44.2-7.5-59.2-22.6-18.5-18.5-27.8-42.9-27.8-73.1z m58.4-0.2c0 16.4 2.7 28.6 8.2 36.5 5.5 7.9 12.4 11.8 20.7 11.8 8.4 0 15.3-3.9 20.7-11.6 5.4-7.8 8.1-20.2 8.1-37.3 0-16-2.7-27.9-8.2-35.7-5.4-7.8-12.2-11.7-20.2-11.7-8.5 0-15.5 4-21 11.9-5.5 7.8-8.3 19.9-8.3 36.1zM713.5 451.8h54.2v30c8.1-12.3 16.3-21 24.6-26.3 8.3-5.3 18.4-7.9 30.3-7.9 16.1 0 28.7 5.8 37.9 17.5 9.1 11.6 13.7 29.6 13.7 53.9v117.2h-58.5V534.9c0-11.6-1.8-19.8-5.3-24.6-3.5-4.8-8.5-7.2-14.9-7.2-7.1 0-12.8 3.2-17.2 9.7-4.4 6.5-6.6 18.1-6.6 34.9v88.6h-58.2V451.8z" fill="#FFFFFF" p-id="1191"></path></svg>