<svg t="1743066843368" class="icon" viewBox="0 0 1024 1024" version="1.1" xmlns="http://www.w3.org/2000/svg" p-id="2092" width="200" height="200"><path d="M0 512l93.1-90.9h837.8L1024 512z" fill="#6B9217" p-id="2093"></path><path d="M186.1 47h651.6c51.4 0 93.1 41.7 93.1 93v744c0 51.3-41.7 93-93.1 93H186.1c-51.4 0-93.1-41.7-93.1-93V140c0.1-51.4 41.7-93 93.1-93z" fill="#FFFFFF" p-id="2094"></path><path d="M400.6 485.4c-30.5 0-44.2-12.8-44.2-53.6 0-27.3 3.1-42.8 3.1-67.4 0-14.2-6.8-28.3-30.2-29V306c23.3-0.3 30.2-14.8 30.2-28.7 0-24.6-3.1-40.5-3.1-67.4 0-41.1 13.7-53.6 44.2-53.6h20.2v26.3h-7.2c-16.2 0-20.2 7.1-20.2 29.3 0 21.2 1.6 40.1 1.6 64.1 0 28-7.8 39.5-24.9 43.8v1.7c17.1 4.4 24.9 16.2 24.9 43.8 0 23.9-1.6 42.8-1.6 64.1 0 22.3 4 29 20.2 29h7.2v27h-20.2z m203.3 0v-27h7.2c15.9 0 20.3-6.7 20.3-29 0-21.2-1.6-40.1-1.6-64.1 0-27.6 7.8-39.5 25-43.8v-1.7c-17.2-4.4-25-15.8-25-43.8 0-23.9 1.6-42.8 1.6-64.1 0-22.3-4.4-29.3-20.3-29.3h-7.2v-26.3h20.3c30.6 0 44.3 12.5 44.3 53.6 0 27-3.4 42.8-3.4 67.4 0 13.8 7.2 28.3 30.3 28.7v29.3c-23.1 0.7-30.3 14.8-30.3 29 0 24.6 3.4 40.1 3.4 67.4 0 40.8-13.7 53.6-44.3 53.6h-20.3z" fill="#C1C7D0" p-id="2095"></path><path d="M582.4 619.3c-17.4 0-31.5 6-42.2 17.9-10.7 11.9-16 30-16 54.1 0 23.7 5.5 41.7 16.4 53.9 11 12.2 24.9 18.4 41.7 18.4s30.7-6.1 41.5-18.2S640 715 640 690.8c0-24-5.3-41.9-15.8-53.7-10.4-11.9-24.3-17.8-41.8-17.8z" fill="#90B344" p-id="2096"></path><path d="M0 512v325.5C0 863.3 20.9 884 46.6 884h930.8c25.8 0 46.6-20.9 46.6-46.5V512H0z m248.9 207.3c0 17.3-1.5 30.7-4.6 40-4.1 12.2-11.5 22-22.3 29.4-10.8 7.4-25 11.1-42.6 11.1-20.7 0-36.6-5.8-47.7-17.4-11.2-11.6-16.8-28.5-16.9-50.9l39.9-4.6c0.5 12 2.2 20.5 5.3 25.4 4.6 7.5 11.5 11.3 20.9 11.3 9.4 0 16.1-2.7 20-8.1 3.9-5.4 5.9-16.6 5.9-33.5V586.8H249v132.5z m194.7 49.6c-6.7 10.5-16.1 18.3-28.3 23.4-12.2 5.1-27.4 7.6-45.6 7.6-26.5 0-46.8-6.1-61-18.4-14.2-12.2-22.7-30.1-25.4-53.5l41.2-4c2.5 13.8 7.5 23.9 15.1 30.4s17.8 9.7 30.7 9.7c13.6 0 23.9-2.9 30.8-8.6 6.9-5.8 10.4-12.5 10.4-20.2 0-4.9-1.5-9.2-4.4-12.6-2.9-3.5-8-6.5-15.2-9.1-5-1.7-16.3-4.8-33.9-9.1-22.7-5.6-38.6-12.5-47.8-20.7-12.9-11.5-19.3-25.6-19.3-42.1 0-10.7 3-20.6 9.1-29.9 6-9.3 14.8-16.4 26.2-21.2 11.4-4.9 25.1-7.3 41.2-7.3 26.3 0 46.1 5.8 59.4 17.3s20.3 26.9 20.9 46.1l-42.3 1.9c-1.8-10.8-5.7-18.5-11.7-23.2-6-4.7-14.9-7.1-26.8-7.1-12.3 0-21.9 2.5-28.9 7.6-4.5 3.2-6.7 7.6-6.7 13 0 4.9 2.1 9.2 6.3 12.7 5.3 4.5 18.3 9.1 38.9 14 20.6 4.9 35.8 9.9 45.7 15.1 9.9 5.2 17.6 12.3 23.2 21.3 5.6 9 8.4 20.1 8.4 33.4-0.2 11.8-3.5 23-10.2 33.5z m212.7 2.2c-18.4 19.1-43 28.6-73.8 28.6-31.2 0-56-9.5-74.3-28.5-18.4-19-27.6-45.2-27.6-78.5 0-21.3 3.2-39.2 9.6-53.7 4.8-10.7 11.3-20.2 19.5-28.7s17.3-14.8 27.1-18.9c13-5.5 28.1-8.3 45.2-8.3 30.9 0 55.6 9.6 74.1 28.7 18.5 19.1 27.8 45.8 27.8 79.8s-9.2 60.4-27.6 79.5z m227.3 25.1h-42.5l-84.5-136.6v136.6h-39.3V586.8h41.2l85.8 139.8V586.8h39.3v209.4z" fill="#90B344" p-id="2097"></path></svg>